<svg width="20" height="20" viewBox="0 0 20 20" fill="none" xmlns="http://www.w3.org/2000/svg">
<path d="M0 3.21429C0 1.71719 1.12109 0.5 2.5 0.5H17.5C18.8789 0.5 20 1.71719 20 3.21429V16.7857C20 18.2828 18.8789 19.5 17.5 19.5H2.5C1.12109 19.5 0 18.2828 0 16.7857V3.21429ZM2.5 3.21429V5.92857H5V3.21429H2.5ZM17.5 3.21429H7.5V5.92857H17.5V3.21429ZM2.5 8.64286V11.3571H5V8.64286H2.5ZM17.5 8.64286H7.5V11.3571H17.5V8.64286ZM2.5 14.0714V16.7857H5V14.0714H2.5ZM17.5 14.0714H7.5V16.7857H17.5V14.0714Z" fill="black"/>
</svg>
