<svg width="18" height="25" viewBox="0 0 18 25" fill="none" xmlns="http://www.w3.org/2000/svg">
<path d="M14.3795 12.1533C15.1159 11.1475 15.5455 9.92188 15.5455 8.59375C15.5455 5.1416 12.6153 2.34375 9 2.34375C5.38466 2.34375 2.45455 5.1416 2.45455 8.59375C2.45455 9.92188 2.88409 11.1475 3.62045 12.1533C3.80966 12.4121 4.03466 12.7051 4.275 13.0176C4.93466 13.8818 5.72216 14.917 6.31023 15.9375C6.84205 16.8652 7.11307 17.832 7.24602 18.7451L4.75568 18.75C4.64318 18.1641 4.45398 17.5928 4.15227 17.0654C3.64602 16.1865 3.01705 15.3613 2.38807 14.5361C2.12216 14.1895 1.85625 13.8428 1.60057 13.4912C0.593182 12.1045 0 10.415 0 8.59375C0 3.84766 4.02955 0 9 0C13.9705 0 18 3.84766 18 8.59375C18 10.415 17.4068 12.1045 16.3943 13.4912C16.1386 13.8428 15.8727 14.1895 15.6068 14.5361C14.9778 15.3564 14.3489 16.1816 13.8426 17.0654C13.5409 17.5928 13.3517 18.1641 13.2392 18.75H10.754C10.8869 17.8369 11.158 16.8652 11.6898 15.9424C12.2778 14.9219 13.0653 13.8867 13.725 13.0225C13.9653 12.71 14.1852 12.417 14.3744 12.1582L14.3795 12.1533ZM9 6.25C7.64489 6.25 6.54545 7.2998 6.54545 8.59375C6.54545 9.02344 6.17727 9.375 5.72727 9.375C5.27727 9.375 4.90909 9.02344 4.90909 8.59375C4.90909 6.43555 6.73977 4.6875 9 4.6875C9.45 4.6875 9.81818 5.03906 9.81818 5.46875C9.81818 5.89844 9.45 6.25 9 6.25ZM9 25C6.73977 25 4.90909 23.252 4.90909 21.0938V20.3125H13.0909V21.0938C13.0909 23.252 11.2602 25 9 25Z" fill="black"/>
</svg>
