<?xml version="1.0" standalone="no"?>
<!DOCTYPE svg PUBLIC "-//W3C//DTD SVG 20010904//EN"
 "http://www.w3.org/TR/2001/REC-SVG-20010904/DTD/svg10.dtd">
<svg version="1.0" xmlns="http://www.w3.org/2000/svg"
 width="512.000000pt" height="512.000000pt" viewBox="0 0 512.000000 512.000000"
 preserveAspectRatio="xMidYMid meet">

<g transform="translate(0.000000,512.000000) scale(0.100000,-0.100000)"
fill="#f44336" stroke="none">
<path d="M504 5110 c-226 -33 -411 -197 -481 -425 -17 -57 -18 -148 -18 -2125
0 -1977 1 -2068 18 -2125 62 -202 210 -350 412 -412 57 -17 148 -18 2125 -18
1977 0 2068 1 2125 18 202 62 350 210 412 412 17 57 18 148 18 2125 0 1977 -1
2068 -18 2125 -62 200 -203 343 -407 412 -53 17 -140 18 -2095 19 -1122 1
-2063 -2 -2091 -6z m1359 -1556 c18 -9 182 -165 365 -347 l332 -332 333 332
c182 182 346 338 364 347 19 10 57 16 96 16 125 0 208 -75 215 -194 7 -115 13
-108 -357 -479 l-336 -337 332 -333 c224 -223 337 -344 348 -369 23 -57 20
-146 -8 -199 -35 -66 -93 -102 -171 -107 -115 -7 -108 -13 -478 356 l-338 337
-337 -337 c-371 -369 -364 -363 -479 -356 -119 7 -194 90 -194 215 0 39 6 77
16 96 9 18 165 182 347 365 l332 332 -332 333 c-182 182 -339 347 -348 366
-13 25 -16 52 -13 107 3 61 8 79 33 115 42 60 102 89 182 89 39 0 77 -6 96
-16z"/>
</g>
</svg>
